<?xml version="1.0" standalone="no"?><!DOCTYPE svg PUBLIC "-//W3C//DTD SVG 1.1//EN" "http://www.w3.org/Graphics/SVG/1.1/DTD/svg11.dtd"><svg t="1760589023556" class="icon" viewBox="0 0 1024 1024" version="1.1" xmlns="http://www.w3.org/2000/svg" p-id="8470" xmlns:xlink="http://www.w3.org/1999/xlink" width="200" height="200"><path d="M920.152 959.966H104.297c-22.131 0-40.084-17.953-40.084-40.084V103.961c0-22.131 17.953-40.084 40.084-40.084h354.428c22.131 0 40.084 17.953 40.084 40.084s-17.953 40.084-40.084 40.084H144.381v735.752h735.687V561.929c0-22.131 17.953-40.084 40.084-40.084 22.131 0 40.084 17.953 40.084 40.084v357.953c0.001 22.131-17.952 40.084-40.084 40.084zM920.152 408.381c-22.131 0-40.084-17.953-40.084-40.084V144.045H642.107c-22.131 0-40.084-17.953-40.084-40.084s17.953-40.084 40.084-40.084h278.045c22.131 0 40.084 17.953 40.084 40.084v264.335c0.001 22.131-17.952 40.085-40.084 40.085z" fill="#ffffff" p-id="8471"></path><path d="M697.534 676.633h-295.15c-22.131 0-40.084-17.953-40.084-40.084V341.464c0-22.131 17.953-40.084 40.084-40.084 22.131 0 40.084 17.953 40.084 40.084v255h255.065c22.131 0 40.084 17.953 40.084 40.084 0.001 22.132-17.952 40.085-40.083 40.085z" fill="#ffffff" p-id="8472"></path><path d="M417.334 672.651c-9.923 0-19.912-3.656-27.615-11.033-16.06-15.276-16.713-40.672-1.436-56.667L891.101 76.345c15.276-16.06 40.737-16.713 56.667-1.436 16.06 15.276 16.713 40.672 1.436 56.667L446.386 660.181a40.019 40.019 0 0 1-29.052 12.47z" fill="#ffffff" p-id="8473"></path></svg>