<?xml version="1.0" standalone="no"?><!DOCTYPE svg PUBLIC "-//W3C//DTD SVG 1.1//EN" "http://www.w3.org/Graphics/SVG/1.1/DTD/svg11.dtd"><svg t="1760649946986" class="icon" viewBox="0 0 1024 1024" version="1.1" xmlns="http://www.w3.org/2000/svg" p-id="15593" xmlns:xlink="http://www.w3.org/1999/xlink" width="200" height="200"><path d="M170.666667 170.666667h85.333333v85.333333h-85.333333v-85.333333z m597.333333 85.333333v-85.333333h85.333333v85.333333h-85.333333z m85.333333 512v85.333333h-85.333333v-85.333333h85.333333z m-597.333333 85.333333h-85.333333v-85.333333h85.333333v85.333333z" p-id="15594" fill="#2c2c2c"></path><path d="M938.666667 955.733333H682.666667a17.066667 17.066667 0 0 1-17.066667-17.066666V682.666667a17.066667 17.066667 0 0 1 17.066667-17.066667h256a17.066667 17.066667 0 0 1 17.066666 17.066667v256a17.066667 17.066667 0 0 1-17.066666 17.066666z m-238.933334-34.133333h221.866667V699.733333H699.733333v221.866667z m-187.733333 34.133333h-85.333333a17.066667 17.066667 0 0 1-17.066667-17.066666v-85.333334a17.066667 17.066667 0 1 1 34.133333 0v68.266667h68.266667a17.066667 17.066667 0 1 1 0 34.133333z m-170.666667 0H85.333333a17.066667 17.066667 0 0 1-17.066666-17.066666V682.666667a17.066667 17.066667 0 0 1 17.066666-17.066667h256a17.066667 17.066667 0 0 1 17.066667 17.066667v256a17.066667 17.066667 0 0 1-17.066667 17.066666zM102.4 921.6h221.866667V699.733333H102.4v221.866667z m750.933333-51.2h-85.333333a17.066667 17.066667 0 0 1-17.066667-17.066667v-85.333333a17.066667 17.066667 0 0 1 17.066667-17.066667h85.333333a17.066667 17.066667 0 0 1 17.066667 17.066667v85.333333a17.066667 17.066667 0 0 1-17.066667 17.066667z m-68.266666-34.133333h51.2v-51.2h-51.2v51.2z m-187.733334 34.133333h-85.333333a17.066667 17.066667 0 1 1 0-34.133333h68.266667v-153.6a17.066667 17.066667 0 1 1 34.133333 0v170.666666a17.066667 17.066667 0 0 1-17.066667 17.066667z m-341.333333 0h-85.333333a17.066667 17.066667 0 0 1-17.066667-17.066667v-85.333333a17.066667 17.066667 0 0 1 17.066667-17.066667h85.333333a17.066667 17.066667 0 0 1 17.066667 17.066667v85.333333a17.066667 17.066667 0 0 1-17.066667 17.066667z m-68.266667-34.133333h51.2v-51.2h-51.2v51.2z m324.266667-51.2h-85.333333a17.066667 17.066667 0 0 1-17.066667-17.066667v-93.866667a17.066667 17.066667 0 1 1 34.133333 0V750.933333h68.266667a17.066667 17.066667 0 1 1 0 34.133334z m0-85.333334a17.066667 17.066667 0 0 1-17.066667-17.066666v-68.266667h-68.266666a17.066667 17.066667 0 1 1 0-34.133333h85.333333a17.066667 17.066667 0 0 1 17.066667 17.066666v85.333334a17.066667 17.066667 0 0 1-17.066667 17.066666z m426.666667-85.333333a17.066667 17.066667 0 0 1-17.066667-17.066667v-153.6h-68.266667a17.066667 17.066667 0 1 1 0-34.133333h85.333334a17.066667 17.066667 0 0 1 17.066666 17.066667v170.666666a17.066667 17.066667 0 0 1-17.066666 17.066667z m-85.333334 0h-85.333333a17.066667 17.066667 0 0 1-17.066667-17.066667v-85.333333a17.066667 17.066667 0 1 1 34.133334 0v68.266667h68.266666a17.066667 17.066667 0 1 1 0 34.133333z m-170.666666 0h-85.333334a17.066667 17.066667 0 1 1 0-34.133333h85.333334a17.066667 17.066667 0 1 1 0 34.133333z m-341.333334 0a17.066667 17.066667 0 0 1-17.066666-17.066667v-85.333333a17.066667 17.066667 0 0 1 34.133333 0v85.333333a17.066667 17.066667 0 0 1-17.066667 17.066667z m-85.333333 0a17.066667 17.066667 0 0 1-17.066667-17.066667v-68.266666h-68.266666a17.066667 17.066667 0 1 1 0-34.133334h85.333333a17.066667 17.066667 0 0 1 17.066667 17.066667v85.333333a17.066667 17.066667 0 0 1-17.066667 17.066667z m-85.333333 0H85.333333a17.066667 17.066667 0 0 1-17.066666-17.066667V426.666667a17.066667 17.066667 0 0 1 17.066666-17.066667h85.333334a17.066667 17.066667 0 0 1 0 34.133333H102.4v136.533334h68.266667a17.066667 17.066667 0 1 1 0 34.133333z m512-85.333333h-85.333334a17.066667 17.066667 0 1 1 0-34.133334h85.333334a17.066667 17.066667 0 1 1 0 34.133334z m-170.666667 0a17.066667 17.066667 0 0 1-17.066667-17.066667V341.333333a17.066667 17.066667 0 0 1 34.133334 0v170.666667a17.066667 17.066667 0 0 1-17.066667 17.066667z m256-85.333334H597.333333a17.066667 17.066667 0 1 1 0-34.133333h170.666667a17.066667 17.066667 0 1 1 0 34.133333z m-341.333333 0H256a17.066667 17.066667 0 0 1 0-34.133333h170.666667a17.066667 17.066667 0 0 1 0 34.133333z m512-85.333333H682.666667a17.066667 17.066667 0 0 1-17.066667-17.066667V85.333333a17.066667 17.066667 0 0 1 17.066667-17.066666h256a17.066667 17.066667 0 0 1 17.066666 17.066666v256a17.066667 17.066667 0 0 1-17.066666 17.066667z m-238.933334-34.133333h221.866667V102.4H699.733333v221.866667z m-102.4 34.133333a17.066667 17.066667 0 0 1-17.066666-17.066667v-68.266666h-68.266667a17.066667 17.066667 0 0 1 0-34.133334h85.333333a17.066667 17.066667 0 0 1 17.066667 17.066667v85.333333a17.066667 17.066667 0 0 1-17.066667 17.066667z m-170.666666 0a17.066667 17.066667 0 0 1-17.066667-17.066667v-85.333333a17.066667 17.066667 0 0 1 34.133333 0v85.333333a17.066667 17.066667 0 0 1-17.066666 17.066667z m-85.333334 0H85.333333a17.066667 17.066667 0 0 1-17.066666-17.066667V85.333333a17.066667 17.066667 0 0 1 17.066666-17.066666h256a17.066667 17.066667 0 0 1 17.066667 17.066666v256a17.066667 17.066667 0 0 1-17.066667 17.066667zM102.4 324.266667h221.866667V102.4H102.4v221.866667z m750.933333-51.2h-85.333333a17.066667 17.066667 0 0 1-17.066667-17.066667v-85.333333a17.066667 17.066667 0 0 1 17.066667-17.066667h85.333333a17.066667 17.066667 0 0 1 17.066667 17.066667v85.333333a17.066667 17.066667 0 0 1-17.066667 17.066667z m-68.266666-34.133334h51.2v-51.2h-51.2v51.2z m-529.066667 34.133334h-85.333333a17.066667 17.066667 0 0 1-17.066667-17.066667v-85.333333a17.066667 17.066667 0 0 1 17.066667-17.066667h85.333333a17.066667 17.066667 0 0 1 17.066667 17.066667v85.333333a17.066667 17.066667 0 0 1-17.066667 17.066667z m-68.266667-34.133334h51.2v-51.2h-51.2v51.2z m409.6-51.2a17.066667 17.066667 0 0 1-17.066666-17.066666V102.4h-136.533334v68.266667a17.066667 17.066667 0 0 1-34.133333 0V85.333333a17.066667 17.066667 0 0 1 17.066667-17.066666h170.666666a17.066667 17.066667 0 0 1 17.066667 17.066666v85.333334a17.066667 17.066667 0 0 1-17.066667 17.066666z" p-id="15595" fill="#2c2c2c"></path></svg>