<?xml version="1.0" standalone="no"?><!DOCTYPE svg PUBLIC "-//W3C//DTD SVG 1.1//EN" "http://www.w3.org/Graphics/SVG/1.1/DTD/svg11.dtd"><svg t="1761596730646" class="icon" viewBox="0 0 1024 1024" version="1.1" xmlns="http://www.w3.org/2000/svg" p-id="6113" xmlns:xlink="http://www.w3.org/1999/xlink" width="200" height="200"><path d="M975.980843 259.531564L692.392552 8.041948c-4.199827-3.699847-9.299616-6.29974-14.699393-7.399695-5.499773-1.099955-11.199538-0.799967-16.499319 0.999959-10.799554 3.599851-18.89922 12.699476-21.099129 23.799018-2.299905 11.099542 1.599934 22.699063 10.099583 30.198753l71.497048 63.497378-81.496635 91.896206L472.501631 62.139714c-4.199827-3.699847-9.299616-6.29974-14.699393-7.399694-11.099542-2.299905-22.699063 1.599934-30.298749 10.099583-5.699765 6.399736-8.499649 14.599397-7.99967 23.099046 0.499979 8.499649 4.299822 16.299327 10.699558 21.899096l50.497915 44.79815L73.6181 613.516948c-53.397795 60.197515-47.298047 153.193675 13.699435 207.391437l56.697659 50.297924L55.618844 971.002188c-5.599769 6.399736-8.499649 14.599397-7.99967 23.099046 0.499979 8.499649 4.299822 16.299327 10.699558 21.899096 4.199827 3.699847 9.299616 6.29974 14.699393 7.399695 2.099913 0.399983 4.199827 0.599975 6.399736 0.599975 8.999628 0 17.799265-3.799843 23.899013-10.699558l88.496346-99.79588 49.297965 43.698196c19.499195 17.299286 43.198216 29.29879 68.797159 34.498576 12.399488 2.499897 24.998968 3.499855 37.498452 2.799884 38.698402-1.799926 75.596879-19.399199 101.195822-48.398002l407.083192-458.781057 50.59791 44.79815c4.199827 3.699847 9.299616 6.29974 14.699393 7.399695 5.499773 1.099955 11.199538 0.799967 16.499319-0.999959 10.799554-3.599851 18.89922-12.699476 21.099129-23.799017 2.299905-11.099542-1.599934-22.699063-10.099583-30.198753L765.58953 322.228975l81.396639-91.796209 86.69642 76.896825c4.199827 3.699847 9.299616 6.29974 14.699393 7.399694 11.099542 2.299905 22.699063-1.599934 30.298749-10.099583 11.699517-13.199455 10.399571-33.398621-2.699888-45.098138z m-257.989348 20.399158l-30.098757-26.698898 81.396639-91.79621 30.098757 26.698898-81.396639 91.79621zM189.113332 579.418356l129.294661 114.095289c4.199827 3.699847 9.299616 6.29974 14.699393 7.399695 11.099542 2.299905 22.699063-1.599934 30.298749-10.099583 5.599769-6.399736 8.499649-14.599397 7.99967-22.99905-0.499979-8.499649-4.299822-16.299327-10.699558-21.899096L231.311589 531.720326l42.198258-47.498039 131.794558 116.295198c4.199827 3.699847 9.299616 6.29974 14.799389 7.399695 5.499773 1.099955 11.199538 0.799967 16.499319-0.999959 10.799554-3.599851 18.89922-12.699476 21.099129-23.899013 2.299905-11.099542-1.599934-22.699063-10.099583-30.198753L315.808101 436.524256l212.591222-239.590107L807.987779 445.023905 400.904587 903.804963c-14.399405 16.199331-35.098551 26.098922-56.897651 26.998885-7.199703 0.399983-14.399405-0.099996-21.499112-1.599934-14.599397-2.999876-28.09884-9.799595-39.198382-19.699187L129.715784 773.210355c-34.698567-30.798728-38.49841-83.496553-8.399653-117.395153l67.797201-76.396846z" p-id="6114" fill="#ffffff"></path></svg>